<?xml version="1.0" ?><svg enable-background="new 0 0 515.91 728.5" height="512" id="Layer_1" version="1.1" viewBox="0 0 512.00003 512" width="512" xml:space="preserve" xmlns="http://www.w3.org/2000/svg" xmlns:cc="http://creativecommons.org/ns#" xmlns:dc="http://purl.org/dc/elements/1.1/" xmlns:inkscape="http://www.inkscape.org/namespaces/inkscape" xmlns:rdf="http://www.w3.org/1999/02/22-rdf-syntax-ns#" xmlns:sodipodi="http://sodipodi.sourceforge.net/DTD/sodipodi-0.dtd" xmlns:svg="http://www.w3.org/2000/svg"><defs id="defs7"/><g id="g3549"><g id="g4934" style="fill:#dc2d00;fill-opacity:1" transform="translate(-866.20581,-605.4602)"><path d="m 866.20585,605.46021 0,511.99999 511.99995,0 0,-511.99999 -511.99995,0 z" id="path4232" style="fill:#dc2d00;fill-opacity:1;fill-rule:nonzero;stroke:none"/><path d="m 1207.1614,730.42117 c 17.6779,10.2085 40.277,4.1537 50.4789,-13.5199 10.2076,-17.6795 4.157,-40.277 -13.5225,-50.4839 -17.677,-10.2043 -40.2736,-4.1503 -50.4813,13.53 -10.2035,17.6728 -4.1504,40.2695 13.5249,50.4738 z m -75.6494,239.0126 c -16.2541,0 -31.6575,-3.6134 -45.4836,-10.0458 l -25.6841,46.02563 c 21.454,10.623 45.6061,16.625 71.1677,16.625 14.8648,0 29.2388,-2.0597 42.8979,-5.8426 2.4171,-14.8455 11.2321,-28.52813 25.2856,-36.64343 14.0292,-8.0994 30.2656,-8.9023 44.3191,-3.5908 27.3318,-26.8746 45.1162,-63.4392 47.7052,-104.1583 l -52.6794,-0.7635 c -4.8475,55.1561 -51.1198,98.3972 -107.5284,98.3972 z m 0,-215.9486 c 56.4086,0 102.6809,43.2494 107.5284,98.3996 l 52.6794,-0.7719 c -2.5924,-40.7157 -20.3776,-77.2795 -47.7127,-104.1532 -14.0518,5.3081 -30.2858,4.5036 -44.3166,-3.5975 -14.0519,-8.1119 -22.8652,-21.7929 -25.2822,-36.6401 -13.6575,-3.7787 -28.0315,-5.8409 -42.8963,-5.8409 -25.5616,0 -49.712,6.0003 -71.1643,16.6275 l 25.6824,46.0197 c 13.8244,-6.4323 29.2278,-10.0458 45.4819,-10.0458 z m -107.9731,107.9747 c 0,-36.5302 18.1544,-68.7951 45.9115,-88.3329 l -27.0222,-45.2688 c -32.3463,21.6134 -56.41024,54.6509 -66.4048,93.349 11.67676,9.5164 19.13676,24.0087 19.13676,40.2561 0,16.2448 -7.4626,30.7371 -19.13836,40.2518 9.99286,38.7006 34.0568,71.7373 66.4047,93.3507 l 27.0239,-45.2705 c -27.7571,-19.5353 -45.9115,-51.8002 -45.9115,-88.3354 z m 183.6276,131.0362 c -17.6804,10.20773 -23.7335,32.80353 -13.5283,50.47633 10.2076,17.6795 32.8026,23.7368 50.483,13.5291 17.6744,-10.2051 23.7301,-32.8026 13.5224,-50.4805 -10.2035,-17.67113 -32.8027,-23.72843 -50.4771,-13.52493 z M 943.25097,824.50177 c -20.41788,0 -36.9631,16.5427 -36.9631,36.9615 0,20.4128 16.54522,36.958 36.9631,36.958 20.41113,0 36.95799,-16.5452 36.95799,-36.958 0,-20.4188 -16.54686,-36.9615 -36.95799,-36.9615" id="circle-of-friends" style="fill:#dc2d00;fill-opacity:1;fill-rule:nonzero;stroke:none"/></g><g id="g4247" transform="matrix(0.33013561,0,0,0.33013561,-156.16947,-465.99311)"><path d="m 1248.4854,1581.1475 c -334.58036,0 -605.81162,271.2312 -605.81162,605.8116 0,334.5804 271.23126,605.8118 605.81162,605.8118 334.5805,0 605.8116,-271.2314 605.8116,-605.8118 0,-334.5804 -271.2311,-605.8116 -605.8116,-605.8116 z m 401.4882,1007.3 c -107.2411,107.2415 -249.825,166.3017 -401.4882,166.3017 -151.6632,0 -294.24697,-59.0602 -401.48832,-166.3017 -107.24134,-107.2413 -166.30165,-249.825 -166.30165,-401.4884 0,-151.6631 59.06031,-294.247 166.30165,-401.4882 107.24135,-107.2414 249.82512,-166.3017 401.48832,-166.3017 151.6632,0 294.2471,59.0603 401.4882,166.3017 107.2415,107.2412 166.3017,249.8251 166.3017,401.4882 0,151.6634 -59.0602,294.2471 -166.3017,401.4884 z" id="path4-0-1" style="fill:#ffffff;fill-opacity:1"/><path d="m 1050.1466,1793.3435 c -3.778,-0.08 -7.3883,0.051 -10.8077,0.3463 -7.9259,0.6868 -22.8904,2.8667 -33.2546,4.8497 l -18.84414,3.6027 -11.08485,15.7958 c -6.09666,8.697 -11.44864,16.7987 -11.9162,17.9435 -0.52543,1.2856 8.79759,1.3639 24.38666,0.2771 41.93753,-2.9234 69.41673,-0.38 103.92013,9.6298 l 14.4102,4.2263 -13.3017,5.9581 c -21.3578,9.5926 -38.331,14.7136 -63.1142,19.1213 -22.4505,3.993 -31.29962,7.8931 -36.37201,15.9345 -1.27081,2.0142 -1.71882,4.3085 -0.97016,5.0576 0.74907,0.7486 11.16927,0.2264 23.13987,-1.1085 38.5825,-4.3023 80.5233,-5.2529 104.7514,-2.4249 29.8263,3.4812 36.042,5.6265 22.4469,7.7594 -22.7178,3.5644 -53.2942,13.0779 -72.1209,22.3775 -52.2109,25.7908 -84.90895,71.0312 -94.15151,130.3855 -3.39816,21.8228 -2.87186,69.617 1.0391,97.4774 7.80481,55.5991 31.12671,173.9225 61.31311,310.7912 9.681,43.896 25.4984,116.2245 35.1247,160.73 9.6265,44.5056 20.07,92.256 23.2088,106.1373 0.6139,2.7142 1.0384,4.5856 1.5935,7.0666 29.8311,18.7825 148.6221,53.033 301.092,0 -23.9031,-34.3276 -68.6566,-105.4905 -68.6566,-109.6014 0,-0.5354 10.2256,2.9732 22.7239,7.7594 30.6276,11.7285 62.0259,20.0961 72.1206,19.2599 7.1795,-0.5945 8.8384,-1.8804 12.6784,-9.5606 4.0482,-8.0969 4.4339,-13.3019 4.4339,-59.8581 0,-56.0723 -2.6492,-77.37 -10.9465,-87.0158 -4.2011,-4.8845 -5.9877,-5.4336 -13.1629,-4.0875 -13.5364,2.5396 -49.4679,22.2595 -76.7626,42.1224 -14.0225,10.2043 -25.8627,17.3889 -26.3265,16.0037 -2.0604,-6.1514 -8.0537,-10.2536 -14.9645,-10.2536 -6.4383,0 -7.8438,-1.0665 -10.8771,-8.3136 -5.8604,-14.0017 -18.446,-60.3946 -22.1003,-81.4736 -4.9035,-28.2818 -4.6713,-83.1362 0.3463,-83.1362 0.5178,0 5.6107,2.3655 11.3619,5.2653 20.4095,10.2898 72.8931,30.0429 94.7063,35.6792 48.8273,12.6167 76.1247,11.7586 140.0844,-4.4339 68.66,-17.3822 96.5769,-32.2642 96.5769,-51.4058 0,-3.5551 -2.1084,-7.6039 -5.2653,-10.1843 -4.8009,-3.9236 -7.6137,-4.1901 -31.8689,-2.9097 -14.632,0.7724 -37.5779,2.87 -50.9903,4.711 -86.7703,11.91 -113.0806,12.3351 -145.2114,2.1476 -32.7393,-10.3798 -47.9909,-20.1252 -55.2858,-35.1943 -2.4999,-5.1643 -4.5723,-12.4088 -4.5723,-16.1422 0,-11.7318 3.084,-12.5461 36.0257,-9.5607 70.9211,6.4274 73.1258,6.1663 134.6808,-13.7867 85.9415,-27.8579 157.6433,-60.6948 169.5287,-77.6633 12.637,-18.0418 -12.0523,-32.7002 -55.0085,-32.7002 -22.1225,0 -47.7405,6.0361 -118.3307,27.8506 -26.1117,8.0693 -47.8974,14.247 -48.427,13.7175 -0.5295,-0.5296 0.2106,-8.6053 1.6628,-17.9435 7.8542,-50.5216 -21.1138,-147.6786 -62.4215,-209.4343 -24.135,-36.0822 -53.0965,-57.5041 -94.2903,-69.7655 -16.5639,-4.9301 -18.8358,-6.3667 -34.571,-22.1003 -46.5594,-46.5547 -140.7107,-88.7434 -197.379,-89.9257 z m 300.3989,208.4644 c 14.0407,0.3145 27.0813,6.649 34.7785,17.4585 4.7212,6.6308 4.8372,7.0671 0.9007,5.4733 -17.9487,-7.2675 -24.4933,-8.4149 -42.261,-7.4822 -14.791,0.7763 -20.048,2.0152 -25.2871,5.8886 -5.5968,4.1382 -6.6509,4.3703 -6.6509,1.3165 0,-6.0452 14.0862,-18.1679 24.3173,-20.9226 4.725,-1.2724 9.522,-1.8368 14.2025,-1.7321 z m -262.0181,14.3411 c 11.7572,-0.3962 23.7036,2.8882 30.2062,8.6598 l 5.9583,5.2653 -7.4131,-2.4941 c -12.4396,-4.1587 -33.5013,-1.1379 -48.6347,6.9281 -16.0283,8.5433 -22.0524,14.5365 -25.9798,25.911 l -2.9099,8.5214 -1.5934,-6.3044 c -1.9114,-7.5579 1.782,-20.9068 7.898,-28.6822 5.5623,-7.0713 20.1123,-14.2722 34.4319,-16.9736 2.6236,-0.4948 5.3234,-0.74 8.0365,-0.8313 z m 281.4857,69.4188 c 9.5751,0 23.0416,8.5242 28.3355,17.9434 8.3062,14.7786 4.0214,31.0872 -11.2231,42.4689 -5.843,4.3622 -20.601,6.9167 -26.3265,4.5725 -14.8021,-6.06 -25.8936,-23.8404 -23.3475,-37.4113 2.6081,-13.9026 18.7193,-27.5735 32.5616,-27.5735 z m 15.6574,14.3409 c -1.5616,-0.057 -3.2408,0.2797 -4.9188,1.1778 -7.5514,4.0416 -4.2726,15.5189 4.4339,15.5189 1.9509,0 4.7721,-1.1696 6.235,-2.6327 5.7413,-5.7413 1.0168,-13.8115 -5.7501,-14.064 z m -271.232,3.7413 c 7.2936,-0.2734 10.6576,0.9824 18.2899,5.8887 6.7644,4.3486 11.8156,9.8453 14.9646,16.3501 5.6532,11.6786 5.8951,16.9605 1.3162,27.9201 -8.4141,20.1374 -28.1529,30.2987 -46.1406,23.8324 -10.5076,-3.7772 -20.9409,-13.2136 -25.0101,-22.7239 -9.6561,-22.5678 7.5988,-49.0796 33.1851,-51.0597 1.2258,-0.095 2.3528,-0.1684 3.3949,-0.2084 z m 16.5578,15.1723 c -9.5709,-0.1264 -13.835,12.8569 -5.7502,17.5279 4.2898,2.4789 11.9071,0.998 14.4104,-2.8405 3.3116,-5.0796 -2.301,-14.6041 -8.6602,-14.6874 z" id="path4727-7" style="fill:#ffffff;fill-opacity:1;stroke:none"/></g></g></svg>